<?xml version="1.0" encoding="utf-8"?>
<!-- Generator: Adobe Illustrator 19.0.0, SVG Export Plug-In . SVG Version: 6.00 Build 0)  -->
<svg version="1.1" id="Laag_1" xmlns="http://www.w3.org/2000/svg" xmlns:xlink="http://www.w3.org/1999/xlink" x="0px" y="0px"
	 viewBox="444 -400 1500 400" style="enable-background:new 444 -400 1500 400;" xml:space="preserve">
<style type="text/css">
	.st0{display:none;}
	.st1{display:inline;fill:none;}
	.st2{display:inline;fill:none;stroke:#000000;stroke-width:40;stroke-linecap:round;stroke-miterlimit:10;}
	.st3{display:inline;}
	.st4{fill:none;stroke:#000000;stroke-width:30;stroke-miterlimit:10;}
</style>
<g id="Laag_2" class="st0">
	<path id="XMLID_9_" class="st1" d="M1834.2-247.7c-1.5-3.5-2.8-6.2-3.9-8.2c-13.4-25.4-32.1-44.4-55.8-56.6
		c-23.9-12.2-45.5-13.4-81.2-15.4h-0.6c-10.8-0.6-33.2-1.1-62.6,2.3c-20.8,2.4-59.4,6.9-99.9,24c-59.1,24.9-94.6,65.4-115.8,89.6
		c-9.9,11.3-16,19.6-23.7,30.1c-10.1,13.8-22.6,30.9-48.6,61.3c-25.2,29.4-40.5,45-64.5,59.6c-11.9,7.2-43.4,26.3-89,30.4
		c-23.5,2.1-59.4,1.2-97.1-15.6c-15.7-7-35.7-19-75.1-59.5c-21.7-22.3-40.5-44.3-67.1-78.5c-17.9-22.9-29.7-39.1-39.2-52
		c-16.5-22.5-24-32.8-42.4-50.4c-24.6-23.7-42.1-34.8-62.5-39.8c-2.9-0.6-7.2-1.6-39.2-2.8c-51-1.9-76.6-2.8-98.2-0.7
		c-38.5,3.7-61.7,5.9-85.9,20.4c-25.3,15.1-38.7,35.3-43.3,43.3c-3.3,5.7-5.8,11.3-7.8,16.7"/>
	<path id="XMLID_8_" class="st1" d="M524.3-195c0.6,13.3,2.9,33.3,15.4,54.3c4.3,7.2,16.7,25.3,39.4,39.6
		c18.7,11.7,35.8,15.7,44,17.5c3.1,0.7,10.5,2.4,42.2,4.3c25.2,1.5,44.5,1.7,65.4,1.8c27.3,0.1,55.1,0.1,82.7,0c0.1,0,0.1,0,0.2,0
		c15.7,0,28.4,11.9,28.5,26.7c0.1,14.8-12.6,26.9-28.3,27c-27.8,0.1-55.8,0.1-83.3,0c-21.8-0.1-42-0.3-68.7-1.9
		c-33.9-2-44.6-4-52-5.7c-10.5-2.4-35.1-8-62.2-25c-31.8-20-49.7-44.9-57.5-58c-22-36.8-22.6-71.7-22.9-86.6
		c-0.3-15.5-1-51.9,21.3-90.9c8.3-14.5,27.6-42.1,62.9-63.1c35.6-21.1,68.7-24.3,110.6-28.4c25.6-2.5,52.6-1.5,106.2,0.5
		c32.8,1.2,42,2.3,51.2,4.6c30.9,7.5,56.7,23.2,88.9,54.1c21.8,20.9,31.9,34.7,48.6,57.5c9.3,12.7,20.9,28.5,38.2,50.7
		c25.3,32.5,43.1,53.2,63.2,74c37.3,38.3,51.4,44.6,57.4,47.2c27.5,12.2,54.1,11.9,67.5,10.7c31.9-2.9,53.4-15.9,63.7-22.2
		c17.3-10.5,28.4-21.7,51-48.1c24.6-28.8,36-44.3,46.1-58.1c8.1-11.1,15.1-20.6,26.6-33.7c22.8-26,65.2-74.4,136.4-104.4
		c48.3-20.4,94.2-25.7,116.2-28.3c33.8-3.9,60.1-3.4,72.8-2.7h0.6c39.1,2.1,70,3.8,105.1,21.8c23.5,12,56.4,35.7,79.6,79.9
		c7.6,14.5,20.5,44.7,20.9,84.3c0.1,13.9,0.5,46.5-18.2,82.3c-5.3,10.1-21.3,40.7-57.8,63.2c-27.1,16.7-51.7,20-85.8,24.7
		c-18.9,2.6-33.1,3.3-55.7,3.3c-10.2,0-22-0.1-36.7-0.3c-5.2-0.1-10.9-0.1-16.9-0.2c-27.8-0.3-56.6-0.5-85.4-0.6
		c-15.7-0.1-28.4-12.1-28.4-27c0.1-14.8,12.8-26.8,28.5-26.8h0.1c29,0.1,57.9,0.3,85.9,0.6c6.1,0.1,11.7,0.1,17,0.2
		c45.3,0.5,60.6,0.7,83.5-2.4c33-4.5,47-6.8,62.9-16.6c23.4-14.4,34.3-35.2,37.8-42c12.7-24.3,12.5-46.2,12.3-58"/>
	<path id="XMLID_13_" class="st2" d="M1259.3,22.6"/>
	<path id="XMLID_10_" class="st1" d="M1846-194.2h-0.7l-233.4-1.7c-12.7-0.1-22.9-12.3-22.8-27.2c0.1-14.8,10.3-26.9,23-26.9h0.1
		l221.7,1.7h0.8"/>
	<path id="XMLID_3_" class="st3" d="M1898.2-220.8"/>
	<path id="XMLID_4_" class="st3" d="M467.8-223"/>
	<path id="XMLID_2_" class="st1" d="M530.7-249.2l175.2,1.6c15.7,0.1,28.4,12.3,28.2,27.1c-0.1,14.7-12.9,26.6-28.5,26.6
		c-0.1,0-0.2,0-0.3,0l-181.1-1.6c0.1,2.4,0.3,6,0.3,6"/>
	<path id="XMLID_1_" class="st3" d="M531-250"/>
	<path id="XMLID_7_" class="st3" d="M531-250c-0.3,0.7-0.3,0.7-0.3,0.7"/>
</g>
<g id="Laag_3">
	<path id="XMLID_12_" class="st4" d="M1835.2-247.7c-1.5-3.5-2.8-6.2-3.9-8.2c-13.4-25.4-32.1-44.4-55.8-56.6
		c-23.9-12.2-45.5-13.4-81.2-15.4h-0.6c-10.8-0.6-33.2-1.1-62.6,2.3c-20.8,2.4-59.4,6.9-99.9,24c-59.1,24.9-94.6,65.4-115.8,89.6
		c-9.9,11.3-16,19.6-23.7,30.1c-10.1,13.8-22.6,30.9-48.6,61.3c-25.2,29.4-40.5,45-64.5,59.6c-11.9,7.2-43.4,26.3-89,30.4
		c-23.5,2.1-59.4,1.2-97.1-15.6c-15.7-7-35.7-19-75.1-59.5c-21.7-22.3-40.5-44.3-67.1-78.5c-17.9-22.9-29.7-39.1-39.2-52
		c-16.5-22.5-24-32.8-42.4-50.4c-24.6-23.7-42.1-34.8-62.5-39.8c-2.9-0.6-7.2-1.6-39.2-2.8c-51-1.9-76.6-2.8-98.2-0.7
		c-38.5,3.7-61.7,5.9-85.9,20.4c-25.3,15.1-38.7,35.3-43.3,43.3c-3.3,5.7-5.8,11.3-7.8,16.7"/>
	<path id="XMLID_11_" class="st4" d="M525.3-195c0.6,13.3,2.9,33.3,15.4,54.3c4.3,7.2,16.7,25.3,39.4,39.6
		c18.7,11.7,35.8,15.7,44,17.5c3.1,0.7,10.5,2.4,42.2,4.3c25.2,1.5,44.5,1.7,65.4,1.8c27.3,0.1,55.1,0.1,82.7,0c0.1,0,0.1,0,0.2,0
		c15.7,0,28.4,11.9,28.5,26.7c0.1,14.8-12.6,26.9-28.3,27c-27.8,0.1-55.8,0.1-83.3,0c-21.8-0.1-42-0.3-68.7-1.9
		c-33.9-2-44.6-4-52-5.7c-10.5-2.4-35.1-8-62.2-25c-31.8-20-49.7-44.9-57.5-58c-22-36.8-22.6-71.7-22.9-86.6
		c-0.3-15.5-1-51.9,21.3-90.9c8.3-14.5,27.6-42.1,62.9-63.1c35.6-21.1,68.7-24.3,110.6-28.4c25.6-2.5,52.6-1.5,106.2,0.5
		c32.8,1.2,42,2.3,51.2,4.6c30.9,7.5,56.7,23.2,88.9,54.1c21.8,20.9,31.9,34.7,48.6,57.5c9.3,12.7,20.9,28.5,38.2,50.7
		c25.3,32.5,43.1,53.2,63.2,74c37.3,38.3,51.4,44.6,57.4,47.2c27.5,12.2,54.1,11.9,67.5,10.7c31.9-2.9,53.4-15.9,63.7-22.2
		c10.5-6.4,18.8-13,28.7-23.3c6.4-6.5,13.4-14.5,22.3-24.8c24.6-28.8,36-44.3,46.1-58.1c8.1-11.1,15.1-20.6,26.6-33.7
		c22.8-26,65.2-74.4,136.4-104.4c48.3-20.4,94.2-25.7,116.2-28.3c33.8-3.9,60.1-3.4,72.8-2.7h0.6c39.1,2.1,70,3.8,105.1,21.8
		c23.5,12,56.4,35.7,79.6,79.9c7.6,14.5,20.5,44.7,20.9,84.3c0.1,13.9,0.5,46.5-18.2,82.3c-5.3,10.1-21.3,40.7-57.8,63.2
		c-27.1,16.7-51.7,20-85.8,24.7c-18.9,2.6-33.1,3.3-55.7,3.3c-10.2,0-22-0.1-36.7-0.3c-5.2-0.1-10.9-0.1-16.9-0.2
		c-27.8-0.3-56.6-0.5-85.4-0.6c-15.7-0.1-28.4-12.1-28.4-27c0.1-14.8,12.8-26.8,28.5-26.8h0.1c29,0.1,57.9,0.3,85.9,0.6
		c6.1,0.1,11.7,0.1,17,0.2c45.3,0.5,60.6,0.7,83.5-2.4c33-4.5,47-6.8,62.9-16.6c23.4-14.4,34.3-35.2,37.8-42
		c12.7-24.3,12.5-46.2,12.3-58"/>
	<path id="XMLID_6_" class="st4" d="M1850-194.2h-0.7l-216.2-1.7c-11.8-0.1-21.2-11.8-21.1-26.7c0.1-14.8,9.6-26.4,21.3-26.4h0.1
		l205.4,1.2l0.7-0.2"/>
	<path id="XMLID_5_" class="st4" d="M531.5-249.2l175.2,1.6c15.7,0.1,28.4,12.8,28.2,27.6c-0.1,14.7-12.9,27.1-28.5,27.1
		c-0.1,0-0.2,0-0.3,0L525-195c0.1,2.4,0.3,5.7,0.3,5.7"/>
	<line id="XMLID_14_" class="st4" x1="542.6" y1="-271.1" x2="542.6" y2="-271.1"/>
	<path id="XMLID_15_" class="st4" d="M529.9-234.2c0-3,0.3-6.6,1-10.5c0.8-4.4,2-8.2,3.1-11.3"/>
	<path id="XMLID_16_" class="st4" d="M1825.4-261.2c2.5,2.2,7,6.6,9.9,13.7c2.5,6,2.8,11.3,2.8,14.5"/>
	<path id="XMLID_17_" class="st4" d="M1845.8-178.3c0.3-4.1,0.5-8.3,0.7-12.7c0.2-6.3,0.3-12.4,0.3-18.3"/>
</g>
<g id="Laag_1_1_" class="st0">
</g>
</svg>
